<mxfile host="app.diagrams.net" agent="Mozilla/5.0 (Windows NT 10.0; Win64; x64) AppleWebKit/537.36 (KHTML, like Gecko) Chrome/130.0.0.0 Safari/537.36" version="24.8.6">
  <diagram id="fc1f3b67-3c9b-b1b3-7705-706421d27264" name="ERD Habit Tracker app">
    <mxGraphModel dx="3119" dy="1200" grid="1" gridSize="10" guides="1" tooltips="1" connect="1" arrows="1" fold="1" page="1" pageScale="1" pageWidth="850" pageHeight="1100" math="0" shadow="0">
      <root>
        <mxCell id="0" />
        <mxCell id="1" parent="0" />
        <mxCell id="mb6TZyHN2ECBVv57RwFY-80" style="rounded=0;orthogonalLoop=1;jettySize=auto;html=1;exitX=0.75;exitY=0;exitDx=0;exitDy=0;entryX=0.5;entryY=1;entryDx=0;entryDy=0;endArrow=none;endFill=0;" edge="1" parent="1" source="eeJmUb57VB1KI2UnR3Kf-1" target="mb6TZyHN2ECBVv57RwFY-6">
          <mxGeometry relative="1" as="geometry" />
        </mxCell>
        <mxCell id="eeJmUb57VB1KI2UnR3Kf-1" value="Reservation" style="whiteSpace=wrap;html=1;align=center;" parent="1" vertex="1">
          <mxGeometry x="570" y="500" width="100" height="40" as="geometry" />
        </mxCell>
        <mxCell id="eeJmUb57VB1KI2UnR3Kf-8" value="is reserved by" style="shape=rhombus;perimeter=rhombusPerimeter;whiteSpace=wrap;html=1;align=center;" parent="1" vertex="1">
          <mxGeometry x="290" y="490" width="120" height="60" as="geometry" />
        </mxCell>
        <mxCell id="eeJmUb57VB1KI2UnR3Kf-25" value="" style="rounded=1;orthogonalLoop=1;jettySize=auto;html=1;endArrow=none;endFill=0;" parent="1" source="eeJmUb57VB1KI2UnR3Kf-24" target="eeJmUb57VB1KI2UnR3Kf-1" edge="1">
          <mxGeometry relative="1" as="geometry" />
        </mxCell>
        <mxCell id="eeJmUb57VB1KI2UnR3Kf-24" value="CheckInDate" style="ellipse;whiteSpace=wrap;html=1;align=center;" parent="1" vertex="1">
          <mxGeometry x="580" y="420" width="100" height="40" as="geometry" />
        </mxCell>
        <mxCell id="eeJmUb57VB1KI2UnR3Kf-27" value="&lt;u&gt;ReservationID&amp;nbsp;&lt;/u&gt;" style="ellipse;whiteSpace=wrap;html=1;align=center;" parent="1" vertex="1">
          <mxGeometry x="490" y="430" width="100" height="40" as="geometry" />
        </mxCell>
        <mxCell id="eeJmUb57VB1KI2UnR3Kf-28" style="rounded=1;orthogonalLoop=1;jettySize=auto;html=1;exitX=0.5;exitY=1;exitDx=0;exitDy=0;entryX=0.342;entryY=0.125;entryDx=0;entryDy=0;entryPerimeter=0;endArrow=none;endFill=0;" parent="1" source="eeJmUb57VB1KI2UnR3Kf-27" target="eeJmUb57VB1KI2UnR3Kf-1" edge="1">
          <mxGeometry relative="1" as="geometry" />
        </mxCell>
        <mxCell id="mb6TZyHN2ECBVv57RwFY-78" style="rounded=0;orthogonalLoop=1;jettySize=auto;html=1;exitX=1;exitY=0;exitDx=0;exitDy=0;entryX=0.5;entryY=0;entryDx=0;entryDy=0;endArrow=none;endFill=0;" edge="1" parent="1" source="eeJmUb57VB1KI2UnR3Kf-49" target="mb6TZyHN2ECBVv57RwFY-2">
          <mxGeometry relative="1" as="geometry" />
        </mxCell>
        <mxCell id="mb6TZyHN2ECBVv57RwFY-79" style="rounded=0;orthogonalLoop=1;jettySize=auto;html=1;exitX=1;exitY=0.5;exitDx=0;exitDy=0;endArrow=none;endFill=0;" edge="1" parent="1" source="eeJmUb57VB1KI2UnR3Kf-49" target="mb6TZyHN2ECBVv57RwFY-4">
          <mxGeometry relative="1" as="geometry" />
        </mxCell>
        <mxCell id="eeJmUb57VB1KI2UnR3Kf-49" value="Guests" style="whiteSpace=wrap;html=1;align=center;" parent="1" vertex="1">
          <mxGeometry x="950" y="500" width="100" height="40" as="geometry" />
        </mxCell>
        <mxCell id="eeJmUb57VB1KI2UnR3Kf-51" value="makes" style="shape=rhombus;perimeter=rhombusPerimeter;whiteSpace=wrap;html=1;align=center;" parent="1" vertex="1">
          <mxGeometry x="750" y="490" width="120" height="60" as="geometry" />
        </mxCell>
        <mxCell id="eeJmUb57VB1KI2UnR3Kf-52" value="" style="edgeStyle=entityRelationEdgeStyle;fontSize=12;html=1;endArrow=ERoneToMany;rounded=0;entryX=1;entryY=0.5;entryDx=0;entryDy=0;exitX=0;exitY=0.5;exitDx=0;exitDy=0;" parent="1" source="eeJmUb57VB1KI2UnR3Kf-51" target="eeJmUb57VB1KI2UnR3Kf-1" edge="1">
          <mxGeometry width="100" height="100" relative="1" as="geometry">
            <mxPoint x="770" y="400" as="sourcePoint" />
            <mxPoint x="870" y="300" as="targetPoint" />
          </mxGeometry>
        </mxCell>
        <mxCell id="eeJmUb57VB1KI2UnR3Kf-53" value="" style="edgeStyle=entityRelationEdgeStyle;fontSize=12;html=1;endArrow=ERmandOne;rounded=0;entryX=0;entryY=0.5;entryDx=0;entryDy=0;exitX=1;exitY=0.5;exitDx=0;exitDy=0;" parent="1" source="eeJmUb57VB1KI2UnR3Kf-51" target="eeJmUb57VB1KI2UnR3Kf-49" edge="1">
          <mxGeometry width="100" height="100" relative="1" as="geometry">
            <mxPoint x="800" y="410" as="sourcePoint" />
            <mxPoint x="900" y="310" as="targetPoint" />
          </mxGeometry>
        </mxCell>
        <mxCell id="eeJmUb57VB1KI2UnR3Kf-59" style="rounded=0;orthogonalLoop=1;jettySize=auto;html=1;exitX=0.5;exitY=1;exitDx=0;exitDy=0;entryX=0.5;entryY=0;entryDx=0;entryDy=0;endArrow=none;endFill=0;" parent="1" source="eeJmUb57VB1KI2UnR3Kf-55" target="eeJmUb57VB1KI2UnR3Kf-49" edge="1">
          <mxGeometry relative="1" as="geometry" />
        </mxCell>
        <mxCell id="eeJmUb57VB1KI2UnR3Kf-55" value="FullName" style="ellipse;whiteSpace=wrap;html=1;align=center;" parent="1" vertex="1">
          <mxGeometry x="990" y="420" width="100" height="40" as="geometry" />
        </mxCell>
        <mxCell id="eeJmUb57VB1KI2UnR3Kf-58" style="rounded=0;orthogonalLoop=1;jettySize=auto;html=1;exitX=0.5;exitY=1;exitDx=0;exitDy=0;entryX=0.75;entryY=0;entryDx=0;entryDy=0;endArrow=none;endFill=0;" parent="1" source="eeJmUb57VB1KI2UnR3Kf-56" target="eeJmUb57VB1KI2UnR3Kf-49" edge="1">
          <mxGeometry relative="1" as="geometry" />
        </mxCell>
        <mxCell id="eeJmUb57VB1KI2UnR3Kf-56" value="Phone#" style="ellipse;whiteSpace=wrap;html=1;align=center;" parent="1" vertex="1">
          <mxGeometry x="1100" y="390" width="100" height="40" as="geometry" />
        </mxCell>
        <mxCell id="eeJmUb57VB1KI2UnR3Kf-60" style="rounded=0;orthogonalLoop=1;jettySize=auto;html=1;exitX=0.5;exitY=1;exitDx=0;exitDy=0;endArrow=none;endFill=0;" parent="1" source="eeJmUb57VB1KI2UnR3Kf-57" edge="1">
          <mxGeometry relative="1" as="geometry">
            <mxPoint x="950" y="500" as="targetPoint" />
          </mxGeometry>
        </mxCell>
        <mxCell id="eeJmUb57VB1KI2UnR3Kf-57" value="Adress" style="ellipse;whiteSpace=wrap;html=1;align=center;" parent="1" vertex="1">
          <mxGeometry x="880" y="420" width="100" height="40" as="geometry" />
        </mxCell>
        <mxCell id="mb6TZyHN2ECBVv57RwFY-2" value="Email" style="ellipse;whiteSpace=wrap;html=1;align=center;" vertex="1" parent="1">
          <mxGeometry x="1210" y="410" width="100" height="40" as="geometry" />
        </mxCell>
        <mxCell id="mb6TZyHN2ECBVv57RwFY-4" value="&lt;u&gt;GuestID&lt;/u&gt;" style="ellipse;whiteSpace=wrap;html=1;align=center;" vertex="1" parent="1">
          <mxGeometry x="1310" y="420" width="100" height="40" as="geometry" />
        </mxCell>
        <mxCell id="mb6TZyHN2ECBVv57RwFY-6" value="TotalAmount" style="ellipse;whiteSpace=wrap;html=1;align=center;" vertex="1" parent="1">
          <mxGeometry x="680" y="420" width="100" height="40" as="geometry" />
        </mxCell>
        <mxCell id="mb6TZyHN2ECBVv57RwFY-27" style="rounded=0;orthogonalLoop=1;jettySize=auto;html=1;exitX=0.25;exitY=0;exitDx=0;exitDy=0;entryX=0.5;entryY=1;entryDx=0;entryDy=0;endArrow=none;endFill=0;" edge="1" parent="1" source="mb6TZyHN2ECBVv57RwFY-13" target="mb6TZyHN2ECBVv57RwFY-24">
          <mxGeometry relative="1" as="geometry" />
        </mxCell>
        <mxCell id="mb6TZyHN2ECBVv57RwFY-28" style="rounded=0;orthogonalLoop=1;jettySize=auto;html=1;exitX=0.5;exitY=0;exitDx=0;exitDy=0;entryX=0.5;entryY=1;entryDx=0;entryDy=0;endArrow=none;endFill=0;" edge="1" parent="1" source="mb6TZyHN2ECBVv57RwFY-13" target="mb6TZyHN2ECBVv57RwFY-25">
          <mxGeometry relative="1" as="geometry" />
        </mxCell>
        <mxCell id="mb6TZyHN2ECBVv57RwFY-29" style="rounded=0;orthogonalLoop=1;jettySize=auto;html=1;exitX=0.75;exitY=0;exitDx=0;exitDy=0;entryX=0.5;entryY=1;entryDx=0;entryDy=0;endArrow=none;endFill=0;" edge="1" parent="1" source="mb6TZyHN2ECBVv57RwFY-13" target="mb6TZyHN2ECBVv57RwFY-26">
          <mxGeometry relative="1" as="geometry" />
        </mxCell>
        <mxCell id="mb6TZyHN2ECBVv57RwFY-13" value="Hotel" style="whiteSpace=wrap;html=1;align=center;" vertex="1" parent="1">
          <mxGeometry x="-425" y="210" width="100" height="40" as="geometry" />
        </mxCell>
        <mxCell id="mb6TZyHN2ECBVv57RwFY-33" style="rounded=0;orthogonalLoop=1;jettySize=auto;html=1;exitX=0.25;exitY=0;exitDx=0;exitDy=0;entryX=0.5;entryY=1;entryDx=0;entryDy=0;endArrow=none;endFill=0;" edge="1" parent="1" source="mb6TZyHN2ECBVv57RwFY-17" target="mb6TZyHN2ECBVv57RwFY-30">
          <mxGeometry relative="1" as="geometry" />
        </mxCell>
        <mxCell id="mb6TZyHN2ECBVv57RwFY-34" style="rounded=0;orthogonalLoop=1;jettySize=auto;html=1;exitX=0.5;exitY=0;exitDx=0;exitDy=0;entryX=0.5;entryY=1;entryDx=0;entryDy=0;endArrow=none;endFill=0;" edge="1" parent="1" source="mb6TZyHN2ECBVv57RwFY-17" target="mb6TZyHN2ECBVv57RwFY-31">
          <mxGeometry relative="1" as="geometry" />
        </mxCell>
        <mxCell id="mb6TZyHN2ECBVv57RwFY-35" style="rounded=0;orthogonalLoop=1;jettySize=auto;html=1;exitX=0.75;exitY=0;exitDx=0;exitDy=0;entryX=0.5;entryY=1;entryDx=0;entryDy=0;endArrow=none;endFill=0;" edge="1" parent="1" source="mb6TZyHN2ECBVv57RwFY-17" target="mb6TZyHN2ECBVv57RwFY-32">
          <mxGeometry relative="1" as="geometry" />
        </mxCell>
        <mxCell id="mb6TZyHN2ECBVv57RwFY-17" value="Rooms" style="shape=ext;margin=3;double=1;whiteSpace=wrap;html=1;align=center;" vertex="1" parent="1">
          <mxGeometry x="30" y="500" width="100" height="40" as="geometry" />
        </mxCell>
        <mxCell id="mb6TZyHN2ECBVv57RwFY-21" value="contains" style="shape=rhombus;perimeter=rhombusPerimeter;whiteSpace=wrap;html=1;align=center;rotation=45;" vertex="1" parent="1">
          <mxGeometry x="-240" y="340" width="120" height="60" as="geometry" />
        </mxCell>
        <mxCell id="mb6TZyHN2ECBVv57RwFY-24" value="&lt;u&gt;HotelID&lt;/u&gt;" style="ellipse;whiteSpace=wrap;html=1;align=center;" vertex="1" parent="1">
          <mxGeometry x="-570" y="140" width="100" height="40" as="geometry" />
        </mxCell>
        <mxCell id="mb6TZyHN2ECBVv57RwFY-25" value="Name" style="ellipse;whiteSpace=wrap;html=1;align=center;" vertex="1" parent="1">
          <mxGeometry x="-460" y="140" width="100" height="40" as="geometry" />
        </mxCell>
        <mxCell id="mb6TZyHN2ECBVv57RwFY-26" value="Location" style="ellipse;whiteSpace=wrap;html=1;align=center;" vertex="1" parent="1">
          <mxGeometry x="-350" y="140" width="100" height="40" as="geometry" />
        </mxCell>
        <mxCell id="mb6TZyHN2ECBVv57RwFY-30" value="&lt;u&gt;RoomID&lt;/u&gt;" style="ellipse;whiteSpace=wrap;html=1;align=center;" vertex="1" parent="1">
          <mxGeometry x="-100" y="620" width="100" height="40" as="geometry" />
        </mxCell>
        <mxCell id="mb6TZyHN2ECBVv57RwFY-31" value="RoomNumber" style="ellipse;whiteSpace=wrap;html=1;align=center;" vertex="1" parent="1">
          <mxGeometry y="620" width="100" height="40" as="geometry" />
        </mxCell>
        <mxCell id="mb6TZyHN2ECBVv57RwFY-32" value="Price" style="ellipse;whiteSpace=wrap;html=1;align=center;" vertex="1" parent="1">
          <mxGeometry x="100" y="620" width="100" height="40" as="geometry" />
        </mxCell>
        <mxCell id="mb6TZyHN2ECBVv57RwFY-36" value="" style="fontSize=12;html=1;endArrow=ERoneToMany;rounded=0;exitX=1;exitY=0.5;exitDx=0;exitDy=0;entryX=0;entryY=0.5;entryDx=0;entryDy=0;" edge="1" parent="1" source="mb6TZyHN2ECBVv57RwFY-21" target="mb6TZyHN2ECBVv57RwFY-17">
          <mxGeometry width="100" height="100" relative="1" as="geometry">
            <mxPoint x="-60" y="430" as="sourcePoint" />
            <mxPoint x="40" y="330" as="targetPoint" />
          </mxGeometry>
        </mxCell>
        <mxCell id="mb6TZyHN2ECBVv57RwFY-40" value="works in" style="shape=rhombus;perimeter=rhombusPerimeter;whiteSpace=wrap;html=1;align=center;rotation=90;" vertex="1" parent="1">
          <mxGeometry x="-435" y="360" width="120" height="60" as="geometry" />
        </mxCell>
        <mxCell id="mb6TZyHN2ECBVv57RwFY-61" style="rounded=0;orthogonalLoop=1;jettySize=auto;html=1;exitX=0;exitY=0.5;exitDx=0;exitDy=0;entryX=1;entryY=0.5;entryDx=0;entryDy=0;endArrow=none;endFill=0;" edge="1" parent="1" source="mb6TZyHN2ECBVv57RwFY-58" target="mb6TZyHN2ECBVv57RwFY-59">
          <mxGeometry relative="1" as="geometry" />
        </mxCell>
        <mxCell id="mb6TZyHN2ECBVv57RwFY-62" style="rounded=0;orthogonalLoop=1;jettySize=auto;html=1;exitX=0;exitY=0.75;exitDx=0;exitDy=0;entryX=1;entryY=0.5;entryDx=0;entryDy=0;endArrow=none;endFill=0;" edge="1" parent="1" source="mb6TZyHN2ECBVv57RwFY-58" target="mb6TZyHN2ECBVv57RwFY-60">
          <mxGeometry relative="1" as="geometry" />
        </mxCell>
        <mxCell id="mb6TZyHN2ECBVv57RwFY-58" value="Employee" style="whiteSpace=wrap;html=1;align=center;" vertex="1" parent="1">
          <mxGeometry x="-425" y="520" width="100" height="40" as="geometry" />
        </mxCell>
        <mxCell id="mb6TZyHN2ECBVv57RwFY-59" value="&lt;u&gt;EmployeeNumber&lt;/u&gt;" style="ellipse;whiteSpace=wrap;html=1;align=center;" vertex="1" parent="1">
          <mxGeometry x="-590" y="500" width="100" height="40" as="geometry" />
        </mxCell>
        <mxCell id="mb6TZyHN2ECBVv57RwFY-60" value="Name" style="ellipse;whiteSpace=wrap;html=1;align=center;" vertex="1" parent="1">
          <mxGeometry x="-590" y="550" width="100" height="40" as="geometry" />
        </mxCell>
        <mxCell id="mb6TZyHN2ECBVv57RwFY-64" value="" style="shape=partialRectangle;whiteSpace=wrap;html=1;left=0;right=0;fillColor=none;rotation=-90;" vertex="1" parent="1">
          <mxGeometry x="-416.87" y="595.63" width="83.75" height="10" as="geometry" />
        </mxCell>
        <mxCell id="mb6TZyHN2ECBVv57RwFY-66" style="rounded=0;orthogonalLoop=1;jettySize=auto;html=1;exitX=0;exitY=1;exitDx=0;exitDy=0;endArrow=none;endFill=0;" edge="1" parent="1" source="mb6TZyHN2ECBVv57RwFY-65">
          <mxGeometry relative="1" as="geometry">
            <mxPoint x="-480" y="800" as="targetPoint" />
          </mxGeometry>
        </mxCell>
        <mxCell id="mb6TZyHN2ECBVv57RwFY-68" style="rounded=0;orthogonalLoop=1;jettySize=auto;html=1;exitX=1;exitY=1;exitDx=0;exitDy=0;endArrow=none;endFill=0;" edge="1" parent="1" source="mb6TZyHN2ECBVv57RwFY-65">
          <mxGeometry relative="1" as="geometry">
            <mxPoint x="-270" y="800" as="targetPoint" />
          </mxGeometry>
        </mxCell>
        <mxCell id="mb6TZyHN2ECBVv57RwFY-65" value="d" style="ellipse;whiteSpace=wrap;html=1;" vertex="1" parent="1">
          <mxGeometry x="-390" y="640" width="30" height="30" as="geometry" />
        </mxCell>
        <mxCell id="mb6TZyHN2ECBVv57RwFY-74" style="rounded=0;orthogonalLoop=1;jettySize=auto;html=1;exitX=0.5;exitY=1;exitDx=0;exitDy=0;endArrow=none;endFill=0;" edge="1" parent="1" source="mb6TZyHN2ECBVv57RwFY-67" target="mb6TZyHN2ECBVv57RwFY-70">
          <mxGeometry relative="1" as="geometry" />
        </mxCell>
        <mxCell id="mb6TZyHN2ECBVv57RwFY-67" value="Hourly Employee" style="whiteSpace=wrap;html=1;align=center;" vertex="1" parent="1">
          <mxGeometry x="-525" y="800" width="100" height="40" as="geometry" />
        </mxCell>
        <mxCell id="mb6TZyHN2ECBVv57RwFY-72" style="rounded=0;orthogonalLoop=1;jettySize=auto;html=1;exitX=0.25;exitY=1;exitDx=0;exitDy=0;endArrow=none;endFill=0;" edge="1" parent="1" source="mb6TZyHN2ECBVv57RwFY-69">
          <mxGeometry relative="1" as="geometry">
            <mxPoint x="-320" y="900" as="targetPoint" />
          </mxGeometry>
        </mxCell>
        <mxCell id="mb6TZyHN2ECBVv57RwFY-69" value="Salaried Employee" style="whiteSpace=wrap;html=1;align=center;" vertex="1" parent="1">
          <mxGeometry x="-325" y="800" width="100" height="40" as="geometry" />
        </mxCell>
        <mxCell id="mb6TZyHN2ECBVv57RwFY-70" value="HoursWorked" style="ellipse;whiteSpace=wrap;html=1;align=center;" vertex="1" parent="1">
          <mxGeometry x="-590" y="900" width="100" height="40" as="geometry" />
        </mxCell>
        <mxCell id="mb6TZyHN2ECBVv57RwFY-73" value="AnnualSalary" style="ellipse;whiteSpace=wrap;html=1;align=center;" vertex="1" parent="1">
          <mxGeometry x="-370" y="900" width="100" height="40" as="geometry" />
        </mxCell>
        <mxCell id="mb6TZyHN2ECBVv57RwFY-90" style="rounded=0;orthogonalLoop=1;jettySize=auto;html=1;exitX=0;exitY=0;exitDx=0;exitDy=0;entryX=0.5;entryY=1;entryDx=0;entryDy=0;endArrow=none;endFill=0;" edge="1" parent="1" source="mb6TZyHN2ECBVv57RwFY-83" target="mb6TZyHN2ECBVv57RwFY-89">
          <mxGeometry relative="1" as="geometry" />
        </mxCell>
        <mxCell id="mb6TZyHN2ECBVv57RwFY-94" style="rounded=0;orthogonalLoop=1;jettySize=auto;html=1;exitX=0.5;exitY=0;exitDx=0;exitDy=0;entryX=0.5;entryY=1;entryDx=0;entryDy=0;endArrow=none;endFill=0;" edge="1" parent="1" source="mb6TZyHN2ECBVv57RwFY-83" target="mb6TZyHN2ECBVv57RwFY-92">
          <mxGeometry relative="1" as="geometry" />
        </mxCell>
        <mxCell id="mb6TZyHN2ECBVv57RwFY-95" style="rounded=0;orthogonalLoop=1;jettySize=auto;html=1;exitX=0.75;exitY=0;exitDx=0;exitDy=0;entryX=0.5;entryY=1;entryDx=0;entryDy=0;endArrow=none;endFill=0;" edge="1" parent="1" source="mb6TZyHN2ECBVv57RwFY-83" target="mb6TZyHN2ECBVv57RwFY-93">
          <mxGeometry relative="1" as="geometry" />
        </mxCell>
        <mxCell id="mb6TZyHN2ECBVv57RwFY-83" value="Payment" style="whiteSpace=wrap;html=1;align=center;rotation=-30;" vertex="1" parent="1">
          <mxGeometry x="590" y="750" width="100" height="40" as="geometry" />
        </mxCell>
        <mxCell id="mb6TZyHN2ECBVv57RwFY-85" value="pays" style="shape=rhombus;perimeter=rhombusPerimeter;whiteSpace=wrap;html=1;align=center;rotation=-30;" vertex="1" parent="1">
          <mxGeometry x="770" y="620" width="120" height="60" as="geometry" />
        </mxCell>
        <mxCell id="mb6TZyHN2ECBVv57RwFY-89" value="&lt;u&gt;PaymentID&lt;/u&gt;" style="ellipse;whiteSpace=wrap;html=1;align=center;rotation=-30;" vertex="1" parent="1">
          <mxGeometry x="390" y="710" width="100" height="40" as="geometry" />
        </mxCell>
        <mxCell id="mb6TZyHN2ECBVv57RwFY-92" value="Amount" style="ellipse;whiteSpace=wrap;html=1;align=center;rotation=-25;" vertex="1" parent="1">
          <mxGeometry x="480" y="660" width="100" height="40" as="geometry" />
        </mxCell>
        <mxCell id="mb6TZyHN2ECBVv57RwFY-93" value="Type" style="ellipse;whiteSpace=wrap;html=1;align=center;rotation=-30;" vertex="1" parent="1">
          <mxGeometry x="570" y="610" width="100" height="40" as="geometry" />
        </mxCell>
        <mxCell id="mb6TZyHN2ECBVv57RwFY-96" value="" style="fontSize=12;html=1;endArrow=ERoneToMany;rounded=0;exitX=0;exitY=0.5;exitDx=0;exitDy=0;entryX=1;entryY=0.5;entryDx=0;entryDy=0;" edge="1" parent="1" source="mb6TZyHN2ECBVv57RwFY-85" target="mb6TZyHN2ECBVv57RwFY-83">
          <mxGeometry width="100" height="100" relative="1" as="geometry">
            <mxPoint x="730" y="910" as="sourcePoint" />
            <mxPoint x="690" y="740" as="targetPoint" />
          </mxGeometry>
        </mxCell>
        <mxCell id="mb6TZyHN2ECBVv57RwFY-100" value="" style="fontSize=12;html=1;endArrow=ERmandOne;rounded=0;entryX=0.5;entryY=1;entryDx=0;entryDy=0;exitX=1;exitY=0.5;exitDx=0;exitDy=0;" edge="1" parent="1" source="mb6TZyHN2ECBVv57RwFY-85" target="eeJmUb57VB1KI2UnR3Kf-49">
          <mxGeometry width="100" height="100" relative="1" as="geometry">
            <mxPoint x="780" y="650" as="sourcePoint" />
            <mxPoint x="880" y="550" as="targetPoint" />
          </mxGeometry>
        </mxCell>
        <mxCell id="mb6TZyHN2ECBVv57RwFY-101" value="" style="edgeStyle=entityRelationEdgeStyle;fontSize=12;html=1;endArrow=ERoneToMany;rounded=0;entryX=1;entryY=0.5;entryDx=0;entryDy=0;exitX=0;exitY=0.5;exitDx=0;exitDy=0;" edge="1" parent="1" source="eeJmUb57VB1KI2UnR3Kf-8" target="mb6TZyHN2ECBVv57RwFY-17">
          <mxGeometry width="100" height="100" relative="1" as="geometry">
            <mxPoint x="220" y="440" as="sourcePoint" />
            <mxPoint x="320" y="340" as="targetPoint" />
          </mxGeometry>
        </mxCell>
        <mxCell id="mb6TZyHN2ECBVv57RwFY-102" value="" style="fontSize=12;html=1;endArrow=ERzeroToMany;endFill=1;rounded=0;entryX=0;entryY=0.5;entryDx=0;entryDy=0;exitX=1;exitY=0.5;exitDx=0;exitDy=0;" edge="1" parent="1" source="eeJmUb57VB1KI2UnR3Kf-8" target="eeJmUb57VB1KI2UnR3Kf-1">
          <mxGeometry width="100" height="100" relative="1" as="geometry">
            <mxPoint x="320" y="510" as="sourcePoint" />
            <mxPoint x="420" y="410" as="targetPoint" />
          </mxGeometry>
        </mxCell>
        <mxCell id="mb6TZyHN2ECBVv57RwFY-103" value="" style="fontSize=12;html=1;endArrow=ERone;endFill=1;rounded=0;entryX=1;entryY=0.5;entryDx=0;entryDy=0;exitX=0;exitY=0.5;exitDx=0;exitDy=0;" edge="1" parent="1" source="mb6TZyHN2ECBVv57RwFY-21" target="mb6TZyHN2ECBVv57RwFY-13">
          <mxGeometry width="100" height="100" relative="1" as="geometry">
            <mxPoint x="-180" y="200" as="sourcePoint" />
            <mxPoint x="-80" y="100" as="targetPoint" />
          </mxGeometry>
        </mxCell>
        <mxCell id="mb6TZyHN2ECBVv57RwFY-104" value="" style="fontSize=12;html=1;endArrow=ERoneToMany;rounded=0;entryX=0.5;entryY=0;entryDx=0;entryDy=0;exitX=1;exitY=0.5;exitDx=0;exitDy=0;" edge="1" parent="1" source="mb6TZyHN2ECBVv57RwFY-40" target="mb6TZyHN2ECBVv57RwFY-58">
          <mxGeometry width="100" height="100" relative="1" as="geometry">
            <mxPoint x="-550" y="420" as="sourcePoint" />
            <mxPoint x="-450" y="320" as="targetPoint" />
          </mxGeometry>
        </mxCell>
        <mxCell id="mb6TZyHN2ECBVv57RwFY-105" value="" style="fontSize=12;html=1;endArrow=ERone;endFill=1;rounded=0;entryX=0.5;entryY=1;entryDx=0;entryDy=0;exitX=0;exitY=0.5;exitDx=0;exitDy=0;" edge="1" parent="1" source="mb6TZyHN2ECBVv57RwFY-40" target="mb6TZyHN2ECBVv57RwFY-13">
          <mxGeometry width="100" height="100" relative="1" as="geometry">
            <mxPoint x="-220" y="360" as="sourcePoint" />
            <mxPoint x="-120" y="260" as="targetPoint" />
          </mxGeometry>
        </mxCell>
      </root>
    </mxGraphModel>
  </diagram>
</mxfile>
